<svg id="visual" viewBox="0 0 900 600" width="900" height="600" xmlns="http://www.w3.org/2000/svg" xmlns:xlink="http://www.w3.org/1999/xlink" version="1.1"><rect x="0" y="0" width="900" height="600" fill="#001220"></rect><defs><linearGradient id="grad1_0" x1="33.3%" y1="100%" x2="100%" y2="0%"><stop offset="20%" stop-color="#fbae3c" stop-opacity="1"></stop><stop offset="80%" stop-color="#fbae3c" stop-opacity="1"></stop></linearGradient></defs><defs><linearGradient id="grad1_1" x1="33.3%" y1="100%" x2="100%" y2="0%"><stop offset="20%" stop-color="#fbae3c" stop-opacity="1"></stop><stop offset="80%" stop-color="#e1685e" stop-opacity="1"></stop></linearGradient></defs><defs><linearGradient id="grad1_2" x1="33.3%" y1="100%" x2="100%" y2="0%"><stop offset="20%" stop-color="#96446e" stop-opacity="1"></stop><stop offset="80%" stop-color="#e1685e" stop-opacity="1"></stop></linearGradient></defs><defs><linearGradient id="grad1_3" x1="33.3%" y1="100%" x2="100%" y2="0%"><stop offset="20%" stop-color="#96446e" stop-opacity="1"></stop><stop offset="80%" stop-color="#3d3056" stop-opacity="1"></stop></linearGradient></defs><defs><linearGradient id="grad1_4" x1="33.3%" y1="100%" x2="100%" y2="0%"><stop offset="20%" stop-color="#001220" stop-opacity="1"></stop><stop offset="80%" stop-color="#3d3056" stop-opacity="1"></stop></linearGradient></defs><defs><linearGradient id="grad2_0" x1="0%" y1="100%" x2="66.7%" y2="0%"><stop offset="20%" stop-color="#fbae3c" stop-opacity="1"></stop><stop offset="80%" stop-color="#fbae3c" stop-opacity="1"></stop></linearGradient></defs><defs><linearGradient id="grad2_1" x1="0%" y1="100%" x2="66.7%" y2="0%"><stop offset="20%" stop-color="#e1685e" stop-opacity="1"></stop><stop offset="80%" stop-color="#fbae3c" stop-opacity="1"></stop></linearGradient></defs><defs><linearGradient id="grad2_2" x1="0%" y1="100%" x2="66.7%" y2="0%"><stop offset="20%" stop-color="#e1685e" stop-opacity="1"></stop><stop offset="80%" stop-color="#96446e" stop-opacity="1"></stop></linearGradient></defs><defs><linearGradient id="grad2_3" x1="0%" y1="100%" x2="66.7%" y2="0%"><stop offset="20%" stop-color="#3d3056" stop-opacity="1"></stop><stop offset="80%" stop-color="#96446e" stop-opacity="1"></stop></linearGradient></defs><defs><linearGradient id="grad2_4" x1="0%" y1="100%" x2="66.7%" y2="0%"><stop offset="20%" stop-color="#3d3056" stop-opacity="1"></stop><stop offset="80%" stop-color="#001220" stop-opacity="1"></stop></linearGradient></defs><g transform="translate(900, 600)"><path d="M-486.7 0C-484.3 -67.2 -481.8 -134.5 -449.7 -186.3C-417.6 -238 -355.8 -274.3 -303.3 -303.3C-250.9 -332.4 -207.8 -354.1 -158.8 -383.4C-109.8 -412.8 -54.9 -449.8 0 -486.7L0 0Z" fill="#18223c"></path><path d="M-389.4 0C-387.4 -53.8 -385.5 -107.6 -359.8 -149C-334.1 -190.4 -284.6 -219.5 -242.7 -242.7C-200.7 -265.9 -166.3 -283.2 -127.1 -306.7C-87.9 -330.2 -43.9 -359.8 0 -389.4L0 0Z" fill="#683a67"></path><path d="M-292 0C-290.6 -40.3 -289.1 -80.7 -269.8 -111.8C-250.5 -142.8 -213.5 -164.6 -182 -182C-150.5 -199.4 -124.7 -212.4 -95.3 -230C-65.9 -247.7 -32.9 -269.9 0 -292L0 0Z" fill="#c0526a"></path><path d="M-194.7 0C-193.7 -26.9 -192.7 -53.8 -179.9 -74.5C-167 -95.2 -142.3 -109.7 -121.3 -121.3C-100.4 -132.9 -83.1 -141.6 -63.5 -153.4C-43.9 -165.1 -22 -179.9 0 -194.7L0 0Z" fill="#f6884d"></path><path d="M-97.3 0C-96.9 -13.4 -96.4 -26.9 -89.9 -37.3C-83.5 -47.6 -71.2 -54.9 -60.7 -60.7C-50.2 -66.5 -41.6 -70.8 -31.8 -76.7C-22 -82.6 -11 -90 0 -97.3L0 0Z" fill="#fbae3c"></path></g><g transform="translate(0, 0)"><path d="M486.7 0C484.3 68.2 481.9 136.4 449.7 186.3C417.5 236.2 355.5 267.7 307.6 307.6C259.6 347.5 225.7 395.6 176.8 426.8C127.9 458.1 63.9 472.4 0 486.7L0 0Z" fill="#18223c"></path><path d="M389.4 0C387.5 54.6 385.5 109.1 359.8 149C334 188.9 284.4 214.2 246.1 246.1C207.7 278 180.6 316.5 141.4 341.5C102.3 366.5 51.1 377.9 0 389.4L0 0Z" fill="#683a67"></path><path d="M292 0C290.6 40.9 289.1 81.8 269.8 111.8C250.5 141.7 213.3 160.6 184.6 184.6C155.8 208.5 135.4 237.4 106.1 256.1C76.7 274.8 38.4 283.4 0 292L0 0Z" fill="#c0526a"></path><path d="M194.7 0C193.7 27.3 192.8 54.6 179.9 74.5C167 94.5 142.2 107.1 123 123C103.9 139 90.3 158.2 70.7 170.7C51.1 183.2 25.6 189 0 194.7L0 0Z" fill="#f6884d"></path><path d="M97.3 0C96.9 13.6 96.4 27.3 89.9 37.3C83.5 47.2 71.1 53.5 61.5 61.5C51.9 69.5 45.1 79.1 35.4 85.4C25.6 91.6 12.8 94.5 0 97.3L0 0Z" fill="#fbae3c"></path></g></svg>